<?xml version="1.0" standalone="no"?>
<!DOCTYPE svg PUBLIC "-//W3C//DTD SVG 20010904//EN"
 "http://www.w3.org/TR/2001/REC-SVG-20010904/DTD/svg10.dtd">
<svg version="1.0" xmlns="http://www.w3.org/2000/svg"
 width="334.000000pt" height="140.000000pt" viewBox="0 0 334.000000 140.000000"
 preserveAspectRatio="xMidYMid meet">

<g transform="translate(0.000000,140.000000) scale(0.100000,-0.100000)"
fill="#000000" stroke="none">
<path d="M1729 1238 c-10 -18 -8 -25 12 -41 24 -19 24 -19 27 0 2 16 9 19 29
15 26 -5 45 12 37 32 -3 7 -25 13 -49 14 -37 1 -47 -2 -56 -20z"/>
<path d="M1287 1166 c-4 -27 -7 -66 -7 -87 0 -27 -5 -39 -17 -42 -10 -3 18 -4
62 -4 44 0 64 2 45 4 -55 6 -80 23 -80 54 0 15 4 29 10 31 6 2 7 20 2 48 l-8
45 -7 -49z"/>
<path d="M2011 1149 c-17 -10 -35 -29 -40 -42 -8 -21 -5 -22 43 -27 59 -6 123
-1 108 9 -5 3 -12 16 -16 29 -4 12 -20 29 -35 37 -25 12 -31 12 -60 -6z"/>
<path d="M1465 1124 c-30 -33 -33 -79 -6 -94 28 -15 48 -13 27 3 -12 9 -17 23
-14 47 2 30 7 35 31 38 23 3 27 0 27 -22 0 -18 5 -26 17 -26 15 0 15 -1 0 -18
-23 -25 -21 -34 6 -30 32 4 36 64 7 101 -28 35 -64 35 -95 1z"/>
<path d="M1695 1080 c-3 -5 0 -7 8 -4 8 3 19 -2 26 -10 11 -13 10 -24 -3 -63
-9 -25 -16 -50 -16 -54 0 -4 20 -10 45 -13 54 -9 107 -34 102 -49 -2 -7 -14
-11 -26 -10 -19 3 -21 -2 -21 -42 l0 -45 -40 0 -40 0 0 50 c0 28 -4 50 -10 50
-5 0 -10 -25 -10 -55 0 -50 2 -55 25 -61 27 -7 141 -1 150 7 7 8 8 262 0 281
-9 23 -42 33 -60 18 -8 -6 -23 -9 -35 -5 -13 4 -20 2 -20 -6 0 -8 -6 -6 -18 4
-21 19 -48 22 -57 7z m133 -43 c2 -10 1 -31 -3 -45 l-7 -27 -19 38 c-11 21
-17 42 -13 48 9 16 38 6 42 -14z"/>
<path d="M1450 925 c0 -39 29 -65 71 -65 33 0 36 2 32 21 -5 18 -11 20 -44 15
-36 -6 -39 -5 -39 18 0 13 6 27 13 29 6 3 2 6 -10 6 -18 1 -23 -5 -23 -24z"/>
<path d="M1488 834 c-4 -3 -3 -17 3 -31 13 -35 12 -36 -21 -31 -42 6 -45 -14
-30 -192 l13 -148 28 -6 c33 -6 110 2 122 14 12 11 -9 274 -25 307 -9 18 -23
30 -43 33 l-30 6 33 7 c47 10 41 41 -8 45 -20 2 -39 0 -42 -4z"/>
<path d="M1695 580 c-3 -25 -10 -72 -15 -105 -7 -50 -14 -231 -11 -297 1 -14
10 -18 36 -18 19 0 35 5 35 10 0 6 -7 10 -15 10 -10 0 -15 11 -15 35 0 33 65
364 74 372 7 7 26 -86 26 -130 0 -24 7 -84 16 -133 14 -83 20 -121 23 -151 1
-8 17 -13 46 -13 46 0 63 16 23 22 -30 4 -36 48 -37 273 l-1 170 -90 0 -90 0
-5 -45z"/>
<path d="M1465 176 c-19 -15 -18 -15 18 -16 27 0 37 4 35 13 -7 18 -31 20 -53
3z"/>
<path d="M1554 175 c-18 -14 -18 -14 9 -15 15 0 27 4 27 9 0 18 -17 20 -36 6z"/>
</g>
</svg>
