<?xml version="1.0" standalone="no"?>
<!DOCTYPE svg PUBLIC "-//W3C//DTD SVG 20010904//EN"
 "http://www.w3.org/TR/2001/REC-SVG-20010904/DTD/svg10.dtd">
<svg version="1.0" xmlns="http://www.w3.org/2000/svg"
 width="334.000000pt" height="140.000000pt" viewBox="0 0 334.000000 140.000000"
 preserveAspectRatio="xMidYMid meet">

<g transform="translate(0.000000,140.000000) scale(0.100000,-0.100000)"
fill="#000000" stroke="none">
<path d="M1858 1232 c-3 -11 -2 -26 3 -33 6 -10 -1 -17 -24 -26 l-32 -11 35
-1 c19 -1 40 -5 46 -9 17 -11 34 -48 34 -73 0 -22 0 -22 -15 -3 -13 16 -14 16
-9 1 4 -10 15 -22 26 -28 26 -14 40 4 35 43 -2 15 1 26 6 25 15 -3 18 43 6 80
-10 31 -12 32 -32 18 -19 -14 -23 -13 -48 11 -25 24 -27 24 -31 6z m112 -68
c0 -8 -5 -12 -10 -9 -6 4 -8 11 -5 16 9 14 15 11 15 -7z m-29 -21 c13 -16 12
-17 -3 -4 -17 13 -22 21 -14 21 2 0 10 -8 17 -17z"/>
<path d="M1765 1140 c-3 -5 -1 -10 4 -10 6 0 11 5 11 10 0 6 -2 10 -4 10 -3 0
-8 -4 -11 -10z"/>
<path d="M1483 1093 c33 -9 19 -33 -19 -33 -29 0 -35 -3 -30 -16 3 -9 6 -22 6
-30 0 -10 7 -13 25 -8 22 5 25 3 26 -22 0 -25 2 -22 15 16 22 72 19 95 -13 97
-16 0 -20 -1 -10 -4z"/>
<path d="M1750 1080 c0 -5 5 -10 10 -10 6 0 10 5 10 10 0 6 -4 10 -10 10 -5 0
-10 -4 -10 -10z"/>
<path d="M1840 1050 c0 -5 4 -10 9 -10 6 0 13 5 16 10 3 6 -1 10 -9 10 -9 0
-16 -4 -16 -10z"/>
<path d="M1670 964 c0 -8 5 -12 10 -9 6 4 8 11 5 16 -9 14 -15 11 -15 -7z"/>
<path d="M1830 870 c0 -5 -10 -10 -22 -11 -22 0 -22 -1 -3 -10 15 -7 10 -8
-23 -6 l-43 3 6 -36 c12 -69 13 -70 63 -70 27 0 42 4 35 8 -15 9 -20 75 -9
110 4 12 5 22 2 22 -3 0 -6 -4 -6 -10z"/>
<path d="M1763 680 c0 -30 2 -43 4 -27 2 15 2 39 0 55 -2 15 -4 2 -4 -28z"/>
<path d="M1860 617 c-21 -11 -25 -20 -25 -55 0 -38 -2 -42 -25 -43 -14 -1 -28
-1 -32 0 -13 2 -9 -30 11 -104 10 -39 18 -83 17 -100 -1 -19 4 -31 14 -32 20
-4 50 97 50 169 0 29 7 78 15 108 21 79 21 80 -25 57z"/>
</g>
</svg>
